<?xml version="1.0" encoding="UTF-8" standalone="no"?>
<svg
   id="Layer_1"
   version="1.1"
   viewBox="0 0 865 199"
   docname="007Phere-White.svg"
   xmlns="http://www.w3.org/2000/svg"
   xmlns:svg="http://www.w3.org/2000/svg">
  
  <defs
     id="defs1">
    <style
       id="style1">
      .st0 {
        fill: #da9c00;
      }

      .st1 {
        fill: #fff;
      }
    </style>
  </defs>
  <path
     class="st1"
     d="M141.14,143.05c-32.36-33.31-23.57-127.65,31.24-133.4,78.99-8.28,79.2,122.33,28.71,143.59-19.27,8.11-45,5.18-59.95-10.2ZM178.52,22.79c-19.71.72-22.1,30.46-22.79,45.15-.81,17.17-1.43,53.41,8.6,67.42,9.49,13.25,24.96,9.16,31.28-4.56,8.48-18.4,8.11-71.94,1.41-91.07-2.9-8.29-8.58-17.3-18.5-16.94Z"
     id="path1" />
  <path
     class="st1"
     d="M503.44,1.54v56.94c14.32-13.54,45.5-16,58.92-.48,14.66,16.95,5.11,61.02,8.23,82.69,1.5,6.72,11.63,6.02,9.78,13.7h-51.95c-1.53-6.63,3.61-5.5,6.46-9.03,1.42-1.75,3.14-6.27,3.45-8.54,1.57-11.51,1.26-42.93.08-54.85-.44-4.47-2.51-11.1-5.46-14.52-8.03-9.31-26.73-7.28-29.52,5.5,1.91,19.94-2.52,44.5.11,63.87.29,2.15,1.27,4.72,2.46,6.53,2.81,4.31,8.94,4.87,7.44,11.04h-50.95c-1.33-6.42,2.59-5.31,5.52-7.96s4.21-8.51,4.51-12.47c2.62-34.79-2.06-72.82-.02-107.96-1.04-8.86-12.11-8.36-9.9-14.83.33-1.21,1.38-1.28,2.29-1.72,3.3-1.6,27.24-8.11,31.31-8.69,2.83-.4,4.61-.02,7.24.78Z"
     id="path2" />
  <path
     class="st1"
     d="M48.64,9.79c56.49-7.08,68.25,47.64,62.02,91.99-5.2,36.96-28.77,63.84-68.8,54.14C-16.02,141.91-13.21,17.54,48.64,9.79ZM45.23,26.87c-2.28,2.1-4.91,7.4-6.1,10.38-7.56,18.92-7.99,76.92,1.58,94.85,8.3,15.55,25.1,15.23,32.65-.68,8.81-18.58,9.99-83.03-2.06-99.84-6.02-8.39-17.79-12.33-26.06-4.71Z"
     id="path3" />
  <path
     class="st1"
     d="M389.55,96.45v36.46c0,.32,1.47,5.6,1.76,6.23,3.5,7.63,15.58,5.79,13.22,15.25h-59.94c-2.04-7.88,4.89-6.51,9-11.48,2.05-2.47,2.73-4.83,3.03-7.96,3.24-33.39-2.53-72-.05-105.95.66-10.28-15.19-9.54-9.84-19.34,28.69,2.66,77.56-8.01,101.23,10.87,17.13,13.66,17.37,43.46,3.54,59.44-7.25,8.38-25.53,16.46-36.49,16.46h-25.48ZM404.03,20.53c-4.52-.53-9.85.39-14.49,0v64.94h15.48c28.94,0,34.69-60.72-1-64.94Z"
     id="path4" />
  <path
     class="st1"
     d="M339.6,9.54c-.2,2.77.32,5.77,0,8.5-1.41,12.1-23.17,46.08-29.16,60.75-9.85,24.15-15.45,49.38-11.81,75.61h-39.96c.84-47.18,36.91-81.71,57.94-120.88h-59.44c-2.38,0-11,10.66-14.47,11.6-1.64.44-4.01-1.25-4.01-2.11V9.54h100.9Z"
     id="path5" />
  <path
     class="st1"
     d="M799.15,93.45c-2.44,30.96,15.2,47.93,46.16,41.66,4.3-.87,7.97-2.85,12.11-3.51.87-.14,1.63.62,1.51,1.49-2.02,14.36-18.96,22.41-32.25,23.34-25.66,1.8-48.74-7.98-55.2-34.8-7.39-30.69,4.12-70.77,40.18-74.12,31.53-2.92,52.21,13.78,52.43,45.94h-64.94ZM835.11,84.46c1.85-37.13-34-34.59-34.97,0h34.97Z"
     id="path6" />
  <rect
     class="st0"
     x=".92"
     y="186.66"
     width="863.42"
     height="11.74"
     rx="5.87"
     ry="5.87"
     id="rect6"
     style="fill:#ca91ff;fill-opacity:1" />
  <path
     class="st1"
     d="M680.26,93.45h-64.94c-1.59,31,14.71,47.75,46.16,41.66,2.93-.57,14.12-5.41,14.79-2.18-8.49,25.41-40.83,28.24-62.46,19.48-40.39-16.36-36.34-92.73,6.51-103.43,32.66-8.16,60.61,9.65,59.95,44.46ZM651.29,84.46c2.18-37.23-33.79-33.96-34.97,0h34.97Z"
     id="path7" />
  <path
     class="st1"
     d="M727.22,67.48l6.17-10.32c6.07-8.19,14.11-10.97,24.22-9.57,20.82,2.88,12.58,36.08-3.39,29.36-4.87-2.05-4.44-11.76-12.43-10.45s-13.01,16.64-13.6,23.43c-.91,10.52-1.41,39.1.1,48.92,1.4,9.06,11.05,7.15,9.93,15.55h-51.95l.16-4.84c5.85-1.81,9.3-6.56,9.88-12.59,2.01-20.73-1.53-44.8-.14-65.89-.37-4.05-3.04-6.61-5.95-9.05s-5.26-.3-3.84-7.43c8.4-.4,31.16-10.82,37.89-8.66,1.15.37,2.13,1.22,2.96,2.07v19.48Z"
     id="path8" />
</svg>
